<mxfile host="Electron" modified="2023-08-03T09:32:26.378Z" agent="Mozilla/5.0 (Macintosh; Intel Mac OS X 10_15_7) AppleWebKit/537.36 (KHTML, like Gecko) draw.io/21.6.1 Chrome/112.0.5615.204 Electron/24.6.1 Safari/537.36" etag="CHfbVEQnVZiXlPNJ2GDs" version="21.6.1" type="device">
  <diagram name="ページ1" id="7maM9GfHlBVL6ETrZQ3Q">
    <mxGraphModel dx="954" dy="724" grid="1" gridSize="10" guides="1" tooltips="1" connect="1" arrows="1" fold="1" page="1" pageScale="1" pageWidth="827" pageHeight="1169" math="0" shadow="0">
      <root>
        <mxCell id="0" />
        <mxCell id="1" parent="0" />
        <mxCell id="VYsC4nbNFF84ayx7uJJ_-1" value="Encoder" style="rounded=1;whiteSpace=wrap;html=1;strokeWidth=3;fillColor=#f5f5f5;fontColor=#333333;strokeColor=#666666;verticalAlign=top;fontStyle=1;fontSize=16;align=left;spacingLeft=3;" vertex="1" parent="1">
          <mxGeometry x="160" y="277" width="160" height="70" as="geometry" />
        </mxCell>
        <mxCell id="VYsC4nbNFF84ayx7uJJ_-2" value="Encoder" style="rounded=1;whiteSpace=wrap;html=1;strokeWidth=3;fillColor=#f5f5f5;fontColor=#333333;strokeColor=#666666;verticalAlign=top;fontStyle=1;fontSize=16;align=left;spacingLeft=3;" vertex="1" parent="1">
          <mxGeometry x="160" y="180" width="160" height="70" as="geometry" />
        </mxCell>
        <mxCell id="VYsC4nbNFF84ayx7uJJ_-3" value="Encoder" style="rounded=1;whiteSpace=wrap;html=1;strokeWidth=3;fillColor=#f5f5f5;fontColor=#333333;strokeColor=#666666;verticalAlign=top;fontStyle=1;fontSize=16;align=left;spacingLeft=3;" vertex="1" parent="1">
          <mxGeometry x="160" y="80" width="160" height="70" as="geometry" />
        </mxCell>
        <mxCell id="VYsC4nbNFF84ayx7uJJ_-4" value="Render Target&lt;br style=&quot;border-color: var(--border-color); font-size: 16px;&quot;&gt;&lt;span style=&quot;font-size: 16px;&quot;&gt;(Texture)&lt;/span&gt;" style="rounded=1;whiteSpace=wrap;html=1;strokeWidth=4;fontStyle=1;fontSize=16;verticalAlign=top;" vertex="1" parent="1">
          <mxGeometry x="440" y="120" width="200" height="200" as="geometry" />
        </mxCell>
        <mxCell id="VYsC4nbNFF84ayx7uJJ_-5" style="edgeStyle=orthogonalEdgeStyle;rounded=0;orthogonalLoop=1;jettySize=auto;html=1;" edge="1" parent="1" target="VYsC4nbNFF84ayx7uJJ_-6">
          <mxGeometry relative="1" as="geometry">
            <Array as="points">
              <mxPoint x="377" y="140" />
              <mxPoint x="377" y="200" />
            </Array>
            <mxPoint x="257.11" y="139.99886792452833" as="sourcePoint" />
            <mxPoint x="543.1600000000001" y="216.00000000000006" as="targetPoint" />
          </mxGeometry>
        </mxCell>
        <mxCell id="VYsC4nbNFF84ayx7uJJ_-6" value="" style="verticalLabelPosition=bottom;verticalAlign=top;html=1;shape=mxgraph.basic.acute_triangle;dx=0.5;strokeWidth=3;fillColor=#f8cecc;strokeColor=#b85450;" vertex="1" parent="1">
          <mxGeometry x="525.0000000000001" y="179.32" width="70" height="56" as="geometry" />
        </mxCell>
        <mxCell id="VYsC4nbNFF84ayx7uJJ_-7" value="" style="ellipse;whiteSpace=wrap;html=1;aspect=fixed;strokeWidth=3;fillColor=#d5e8d4;strokeColor=#82b366;" vertex="1" parent="1">
          <mxGeometry x="485" y="216.66" width="60" height="60" as="geometry" />
        </mxCell>
        <mxCell id="VYsC4nbNFF84ayx7uJJ_-8" value="" style="verticalLabelPosition=bottom;verticalAlign=top;html=1;shape=mxgraph.basic.star;fillColor=#fff2cc;strokeWidth=3;strokeColor=#d6b656;" vertex="1" parent="1">
          <mxGeometry x="521.8299999999999" y="229.32" width="73.17" height="70.68" as="geometry" />
        </mxCell>
        <mxCell id="VYsC4nbNFF84ayx7uJJ_-9" value="" style="verticalLabelPosition=bottom;verticalAlign=top;html=1;shape=mxgraph.basic.acute_triangle;dx=0.5;strokeWidth=3;fillColor=#f8cecc;strokeColor=#b85450;" vertex="1" parent="1">
          <mxGeometry x="230" y="100" width="40" height="40" as="geometry" />
        </mxCell>
        <mxCell id="VYsC4nbNFF84ayx7uJJ_-10" value="" style="ellipse;whiteSpace=wrap;html=1;aspect=fixed;strokeWidth=3;fillColor=#d5e8d4;strokeColor=#82b366;" vertex="1" parent="1">
          <mxGeometry x="230" y="200" width="40" height="40" as="geometry" />
        </mxCell>
        <mxCell id="VYsC4nbNFF84ayx7uJJ_-11" value="" style="verticalLabelPosition=bottom;verticalAlign=top;html=1;shape=mxgraph.basic.star;fillColor=#fff2cc;strokeWidth=3;strokeColor=#d6b656;" vertex="1" parent="1">
          <mxGeometry x="230" y="297" width="40" height="40" as="geometry" />
        </mxCell>
        <mxCell id="VYsC4nbNFF84ayx7uJJ_-12" style="edgeStyle=orthogonalEdgeStyle;rounded=0;orthogonalLoop=1;jettySize=auto;html=1;" edge="1" parent="1" source="VYsC4nbNFF84ayx7uJJ_-28" target="VYsC4nbNFF84ayx7uJJ_-7">
          <mxGeometry relative="1" as="geometry">
            <Array as="points">
              <mxPoint x="380" y="220" />
              <mxPoint x="380" y="237" />
            </Array>
          </mxGeometry>
        </mxCell>
        <mxCell id="VYsC4nbNFF84ayx7uJJ_-13" style="edgeStyle=orthogonalEdgeStyle;rounded=0;orthogonalLoop=1;jettySize=auto;html=1;" edge="1" parent="1" source="VYsC4nbNFF84ayx7uJJ_-29" target="VYsC4nbNFF84ayx7uJJ_-8">
          <mxGeometry relative="1" as="geometry">
            <Array as="points">
              <mxPoint x="380" y="320" />
              <mxPoint x="380" y="261" />
            </Array>
          </mxGeometry>
        </mxCell>
        <mxCell id="VYsC4nbNFF84ayx7uJJ_-14" value="" style="rounded=0;whiteSpace=wrap;html=1;fillColor=none;strokeColor=none;" vertex="1" parent="1">
          <mxGeometry width="40" height="40" as="geometry" />
        </mxCell>
        <mxCell id="VYsC4nbNFF84ayx7uJJ_-15" value="" style="rounded=0;whiteSpace=wrap;html=1;fillColor=none;strokeColor=none;" vertex="1" parent="1">
          <mxGeometry x="1600" width="40" height="40" as="geometry" />
        </mxCell>
        <mxCell id="VYsC4nbNFF84ayx7uJJ_-16" value="Encoder" style="rounded=1;whiteSpace=wrap;html=1;strokeWidth=3;fillColor=#f5f5f5;fontColor=#333333;strokeColor=#666666;verticalAlign=top;fontStyle=1;fontSize=16;align=left;spacingLeft=8;arcSize=9;" vertex="1" parent="1">
          <mxGeometry x="920" y="80" width="160" height="250" as="geometry" />
        </mxCell>
        <mxCell id="VYsC4nbNFF84ayx7uJJ_-17" value="Render Target&lt;br style=&quot;border-color: var(--border-color);&quot;&gt;(Texture)" style="rounded=1;whiteSpace=wrap;html=1;strokeWidth=4;fontStyle=1;fontSize=16;verticalAlign=top;" vertex="1" parent="1">
          <mxGeometry x="1200" y="120" width="200" height="200" as="geometry" />
        </mxCell>
        <mxCell id="VYsC4nbNFF84ayx7uJJ_-18" style="edgeStyle=orthogonalEdgeStyle;rounded=0;orthogonalLoop=1;jettySize=auto;html=1;" edge="1" parent="1" source="VYsC4nbNFF84ayx7uJJ_-30" target="VYsC4nbNFF84ayx7uJJ_-33">
          <mxGeometry relative="1" as="geometry">
            <Array as="points">
              <mxPoint x="1140" y="137" />
              <mxPoint x="1140" y="200" />
            </Array>
          </mxGeometry>
        </mxCell>
        <mxCell id="VYsC4nbNFF84ayx7uJJ_-19" value="" style="verticalLabelPosition=bottom;verticalAlign=top;html=1;shape=mxgraph.basic.acute_triangle;dx=0.5;strokeWidth=3;fillColor=#f8cecc;strokeColor=#b85450;" vertex="1" parent="1">
          <mxGeometry x="970" y="117" width="40" height="40" as="geometry" />
        </mxCell>
        <mxCell id="VYsC4nbNFF84ayx7uJJ_-20" value="" style="ellipse;whiteSpace=wrap;html=1;aspect=fixed;strokeWidth=3;fillColor=#d5e8d4;strokeColor=#82b366;" vertex="1" parent="1">
          <mxGeometry x="969.6" y="200" width="40" height="40" as="geometry" />
        </mxCell>
        <mxCell id="VYsC4nbNFF84ayx7uJJ_-21" value="" style="verticalLabelPosition=bottom;verticalAlign=top;html=1;shape=mxgraph.basic.star;fillColor=#fff2cc;strokeWidth=3;strokeColor=#d6b656;" vertex="1" parent="1">
          <mxGeometry x="970" y="277" width="40" height="40" as="geometry" />
        </mxCell>
        <mxCell id="VYsC4nbNFF84ayx7uJJ_-22" style="edgeStyle=orthogonalEdgeStyle;rounded=0;orthogonalLoop=1;jettySize=auto;html=1;" edge="1" parent="1" source="VYsC4nbNFF84ayx7uJJ_-31" target="VYsC4nbNFF84ayx7uJJ_-34">
          <mxGeometry relative="1" as="geometry">
            <Array as="points">
              <mxPoint x="1140" y="220" />
              <mxPoint x="1140" y="244" />
            </Array>
          </mxGeometry>
        </mxCell>
        <mxCell id="VYsC4nbNFF84ayx7uJJ_-23" value="Improved performance" style="shape=callout;whiteSpace=wrap;html=1;perimeter=calloutPerimeter;rounded=1;flipH=0;flipV=0;strokeWidth=1;fillColor=#d80073;strokeColor=#A50040;fontStyle=1;fontSize=14;position2=0.08;size=20;position=0.42;fontColor=#ffffff;" vertex="1" parent="1">
          <mxGeometry x="1030" y="20" width="120" height="70" as="geometry" />
        </mxCell>
        <mxCell id="VYsC4nbNFF84ayx7uJJ_-24" value="&lt;div style=&quot;font-size: 15px;&quot;&gt;// render pass #1&lt;/div&gt;&lt;div style=&quot;font-size: 15px;&quot;&gt;let &lt;font color=&quot;#cc0000&quot;&gt;renderEncoder01 &lt;/font&gt;= commandBuffer.makeRenderCommandEncoder(...)&lt;/div&gt;&lt;div style=&quot;font-size: 15px;&quot;&gt;&lt;font color=&quot;#cc0000&quot;&gt;renderEncoder01&lt;/font&gt;.setRenderPipelineState(...)&lt;/div&gt;&lt;div style=&quot;font-size: 15px;&quot;&gt;&amp;nbsp; &amp;nbsp; ︙&lt;/div&gt;&lt;div style=&quot;font-size: 15px;&quot;&gt;&lt;font color=&quot;#cc0000&quot;&gt;renderEncoder01&lt;/font&gt;.endEncoding()&lt;/div&gt;&lt;div style=&quot;font-size: 15px;&quot;&gt;&lt;br style=&quot;font-size: 15px;&quot;&gt;&lt;/div&gt;&lt;div style=&quot;font-size: 15px;&quot;&gt;// render pass #2&lt;/div&gt;&lt;div style=&quot;font-size: 15px;&quot;&gt;let &lt;font color=&quot;#009900&quot;&gt;renderEncoder02 &lt;/font&gt;= commandBuffer.makeRenderCommandEncoder(...)&lt;/div&gt;&lt;div style=&quot;font-size: 15px;&quot;&gt;&lt;font color=&quot;#009900&quot;&gt;renderEncoder02&lt;/font&gt;.setRenderPipelineState(...)&lt;/div&gt;&lt;div style=&quot;font-size: 15px;&quot;&gt;&amp;nbsp; &amp;nbsp; ︙&lt;/div&gt;&lt;div style=&quot;font-size: 15px;&quot;&gt;&lt;font color=&quot;#009900&quot;&gt;renderEncoder02&lt;/font&gt;.endEncoding()&lt;/div&gt;&lt;div style=&quot;font-size: 15px;&quot;&gt;&lt;br&gt;&lt;/div&gt;&lt;div style=&quot;font-size: 15px;&quot;&gt;&lt;div style=&quot;border-color: var(--border-color);&quot;&gt;// render pass #3&lt;/div&gt;&lt;div style=&quot;border-color: var(--border-color);&quot;&gt;let &lt;font color=&quot;#0066cc&quot;&gt;renderEncoder03 &lt;/font&gt;= commandBuffer.makeRenderCommandEncoder(...)&lt;/div&gt;&lt;div style=&quot;border-color: var(--border-color);&quot;&gt;&lt;font color=&quot;#0066cc&quot;&gt;renderEncoder03&lt;/font&gt;.setRenderPipelineState(...)&lt;/div&gt;&lt;div style=&quot;border-color: var(--border-color);&quot;&gt;&amp;nbsp; &amp;nbsp; ︙&lt;/div&gt;&lt;div style=&quot;border-color: var(--border-color);&quot;&gt;&lt;font color=&quot;#0066cc&quot;&gt;renderEncoder03&lt;/font&gt;.endEncoding()&lt;/div&gt;&lt;/div&gt;" style="rounded=0;whiteSpace=wrap;html=1;align=left;fontSize=15;fontStyle=1;arcSize=9;spacingLeft=5;" vertex="1" parent="1">
          <mxGeometry x="120" y="400" width="560" height="360" as="geometry" />
        </mxCell>
        <mxCell id="VYsC4nbNFF84ayx7uJJ_-25" value="&lt;div style=&quot;&quot;&gt;&lt;div style=&quot;&quot;&gt;let &lt;font color=&quot;#cc0000&quot;&gt;renderEncoder &lt;/font&gt;= commandBuffer.makeRenderCommandEncoder(...)&lt;/div&gt;&lt;div style=&quot;&quot;&gt;&lt;br&gt;&lt;/div&gt;&lt;div style=&quot;&quot;&gt;// render pass #1&lt;/div&gt;&lt;div style=&quot;&quot;&gt;&lt;font color=&quot;#cc0000&quot;&gt;renderEncoder&lt;/font&gt;.setRenderPipelineState(...)&lt;/div&gt;&lt;div style=&quot;&quot;&gt;&amp;nbsp; &amp;nbsp; ︙&lt;/div&gt;&lt;div style=&quot;&quot;&gt;&lt;font color=&quot;#cc0000&quot;&gt;renderEncoder&lt;/font&gt;.endEncoding()&lt;/div&gt;&lt;div style=&quot;&quot;&gt;&lt;br&gt;&lt;/div&gt;&lt;div style=&quot;&quot;&gt;// render pass #2&lt;/div&gt;&lt;div style=&quot;&quot;&gt;&lt;font color=&quot;#cc0000&quot;&gt;renderEncoder&lt;/font&gt;.setRenderPipelineState(...)&lt;/div&gt;&lt;div style=&quot;&quot;&gt;&amp;nbsp; &amp;nbsp; ︙&lt;/div&gt;&lt;div style=&quot;&quot;&gt;&lt;font color=&quot;#cc0000&quot;&gt;renderEncoder&lt;/font&gt;.endEncoding()&lt;/div&gt;&lt;div style=&quot;&quot;&gt;&lt;br&gt;&lt;/div&gt;&lt;div style=&quot;&quot;&gt;&lt;div style=&quot;border-color: var(--border-color);&quot;&gt;// render pass #3&lt;/div&gt;&lt;div style=&quot;border-color: var(--border-color);&quot;&gt;&lt;font color=&quot;#cc0000&quot;&gt;renderEncoder&lt;/font&gt;.setRenderPipelineState(...)&lt;/div&gt;&lt;div style=&quot;border-color: var(--border-color);&quot;&gt;&amp;nbsp; &amp;nbsp; ︙&lt;/div&gt;&lt;div style=&quot;border-color: var(--border-color);&quot;&gt;&lt;font color=&quot;#cc0000&quot;&gt;renderEncoder&lt;/font&gt;.endEncoding()&lt;/div&gt;&lt;/div&gt;&lt;/div&gt;" style="rounded=0;whiteSpace=wrap;html=1;align=left;fontSize=15;fontStyle=1;arcSize=9;spacingLeft=5;" vertex="1" parent="1">
          <mxGeometry x="880" y="400" width="560" height="360" as="geometry" />
        </mxCell>
        <mxCell id="VYsC4nbNFF84ayx7uJJ_-26" value="Merge" style="shape=singleArrow;whiteSpace=wrap;html=1;arrowWidth=0.5826086956521739;arrowSize=0.59;fontStyle=1;fontSize=18;fillColor=#647687;strokeColor=none;fontColor=#ffffff;align=left;spacingLeft=15;gradientColor=none;gradientDirection=west;" vertex="1" parent="1">
          <mxGeometry x="740" y="157.5" width="100" height="115" as="geometry" />
        </mxCell>
        <mxCell id="VYsC4nbNFF84ayx7uJJ_-27" value="" style="shape=image;html=1;verticalAlign=top;verticalLabelPosition=bottom;labelBackgroundColor=#ffffff;imageAspect=0;aspect=fixed;image=https://cdn4.iconfinder.com/data/icons/48-bubbles/48/17.Brush-128.png;imageBorder=none;" vertex="1" parent="1">
          <mxGeometry x="239.99999999999997" y="100" width="40" height="40" as="geometry" />
        </mxCell>
        <mxCell id="VYsC4nbNFF84ayx7uJJ_-28" value="" style="shape=image;html=1;verticalAlign=top;verticalLabelPosition=bottom;labelBackgroundColor=#ffffff;imageAspect=0;aspect=fixed;image=https://cdn4.iconfinder.com/data/icons/48-bubbles/48/17.Brush-128.png;imageBorder=none;" vertex="1" parent="1">
          <mxGeometry x="239.99999999999994" y="200" width="40" height="40" as="geometry" />
        </mxCell>
        <mxCell id="VYsC4nbNFF84ayx7uJJ_-29" value="" style="shape=image;html=1;verticalAlign=top;verticalLabelPosition=bottom;labelBackgroundColor=#ffffff;imageAspect=0;aspect=fixed;image=https://cdn4.iconfinder.com/data/icons/48-bubbles/48/17.Brush-128.png;imageBorder=none;" vertex="1" parent="1">
          <mxGeometry x="239.99999999999994" y="300" width="40" height="40" as="geometry" />
        </mxCell>
        <mxCell id="VYsC4nbNFF84ayx7uJJ_-30" value="" style="shape=image;html=1;verticalAlign=top;verticalLabelPosition=bottom;labelBackgroundColor=#ffffff;imageAspect=0;aspect=fixed;image=https://cdn4.iconfinder.com/data/icons/48-bubbles/48/17.Brush-128.png;imageBorder=none;" vertex="1" parent="1">
          <mxGeometry x="982.8999999999999" y="120" width="40" height="40" as="geometry" />
        </mxCell>
        <mxCell id="VYsC4nbNFF84ayx7uJJ_-31" value="" style="shape=image;html=1;verticalAlign=top;verticalLabelPosition=bottom;labelBackgroundColor=#ffffff;imageAspect=0;aspect=fixed;image=https://cdn4.iconfinder.com/data/icons/48-bubbles/48/17.Brush-128.png;imageBorder=none;" vertex="1" parent="1">
          <mxGeometry x="979.9999999999998" y="200" width="40" height="40" as="geometry" />
        </mxCell>
        <mxCell id="VYsC4nbNFF84ayx7uJJ_-32" value="" style="shape=image;html=1;verticalAlign=top;verticalLabelPosition=bottom;labelBackgroundColor=#ffffff;imageAspect=0;aspect=fixed;image=https://cdn4.iconfinder.com/data/icons/48-bubbles/48/17.Brush-128.png;imageBorder=none;" vertex="1" parent="1">
          <mxGeometry x="982.8999999999999" y="280" width="40" height="40" as="geometry" />
        </mxCell>
        <mxCell id="VYsC4nbNFF84ayx7uJJ_-33" value="" style="verticalLabelPosition=bottom;verticalAlign=top;html=1;shape=mxgraph.basic.acute_triangle;dx=0.5;strokeWidth=3;fillColor=#f8cecc;strokeColor=#b85450;" vertex="1" parent="1">
          <mxGeometry x="1285" y="176.32" width="70" height="56" as="geometry" />
        </mxCell>
        <mxCell id="VYsC4nbNFF84ayx7uJJ_-34" value="" style="ellipse;whiteSpace=wrap;html=1;aspect=fixed;strokeWidth=3;fillColor=#d5e8d4;strokeColor=#82b366;" vertex="1" parent="1">
          <mxGeometry x="1245" y="213.66" width="60" height="60" as="geometry" />
        </mxCell>
        <mxCell id="VYsC4nbNFF84ayx7uJJ_-35" value="" style="verticalLabelPosition=bottom;verticalAlign=top;html=1;shape=mxgraph.basic.star;fillColor=#fff2cc;strokeWidth=3;strokeColor=#d6b656;" vertex="1" parent="1">
          <mxGeometry x="1281.83" y="226.32" width="73.17" height="70.68" as="geometry" />
        </mxCell>
        <mxCell id="VYsC4nbNFF84ayx7uJJ_-36" style="edgeStyle=orthogonalEdgeStyle;rounded=0;orthogonalLoop=1;jettySize=auto;html=1;" edge="1" parent="1" source="VYsC4nbNFF84ayx7uJJ_-32" target="VYsC4nbNFF84ayx7uJJ_-35">
          <mxGeometry relative="1" as="geometry">
            <Array as="points">
              <mxPoint x="1140" y="297" />
              <mxPoint x="1140" y="262" />
            </Array>
          </mxGeometry>
        </mxCell>
      </root>
    </mxGraphModel>
  </diagram>
</mxfile>
